<?xml version="1.0" standalone="no"?>
<!DOCTYPE svg PUBLIC "-//W3C//DTD SVG 20010904//EN"
 "http://www.w3.org/TR/2001/REC-SVG-20010904/DTD/svg10.dtd">
<svg version="1.0" xmlns="http://www.w3.org/2000/svg"
 width="1332.000000pt" height="1332.000000pt" viewBox="0 0 1332.000000 1332.000000"
 preserveAspectRatio="xMidYMid meet">
<metadata>
Created by potrace 1.14, written by Peter Selinger 2001-2017
</metadata>
<g transform="translate(0.000000,1332.000000) scale(0.100000,-0.100000)"
fill="#000000" stroke="none">
<path d="M5270 9462 c0 -7 10 -29 23 -50 13 -20 41 -68 62 -107 21 -38 58
-106 83 -150 64 -115 152 -273 177 -320 12 -22 42 -76 66 -120 81 -148 80
-121 15 -235 -31 -55 -56 -103 -56 -106 0 -2 -10 -21 -23 -42 -13 -20 -41 -68
-62 -107 -212 -388 -218 -399 -228 -388 -4 3 -7 158 -7 343 l0 337 -29 39
c-21 30 -45 47 -97 69 -38 16 -98 42 -134 57 -75 34 -92 41 -140 62 -97 41
-167 72 -181 81 -9 6 -42 57 -74 115 -117 210 -219 396 -254 463 l-36 67 -343
0 -344 0 -34 -34 c-27 -27 -34 -42 -34 -74 0 -40 0 -41 -33 -35 -23 3 -39 -1
-57 -15 l-25 -20 -3 -807 c-3 -908 -7 -851 74 -902 l44 -28 0 -1833 c0 -2019
-5 -1877 61 -1916 17 -10 706 -693 1531 -1518 l1500 -1501 126 6 c463 24 784
69 1189 168 29 7 50 16 47 21 -3 4 2 5 11 2 9 -4 33 -2 53 4 20 6 71 21 112
33 74 21 191 59 365 119 81 28 111 39 180 70 11 5 49 21 85 35 66 26 100 42
245 109 97 46 180 88 260 131 33 18 76 41 95 51 19 11 37 22 40 25 3 3 17 12
31 20 97 51 368 227 505 327 186 136 315 242 308 253 -3 5 3 6 12 2 14 -5 16
-3 11 11 -4 11 -3 15 4 11 5 -4 47 26 92 67 45 40 96 86 114 102 18 16 30 33
26 39 -3 6 -2 7 4 4 10 -6 284 261 292 285 2 7 -3 9 -12 5 -11 -4 -14 -2 -10
9 4 10 9 12 18 4 13 -10 51 27 152 146 23 27 51 60 63 74 75 85 235 303 354
480 31 47 60 90 64 95 5 6 37 60 73 120 35 60 69 119 76 130 6 11 20 36 31 55
10 19 33 61 51 93 17 32 28 63 25 69 -4 6 -3 9 2 5 15 -9 193 373 259 558 10
28 22 54 27 60 4 5 8 15 8 23 0 8 6 28 14 45 14 32 39 104 56 162 5 17 25 84
46 150 20 66 42 146 50 178 8 31 20 83 28 115 32 132 58 251 67 312 5 36 12
72 14 80 9 28 36 234 50 380 7 80 17 164 20 188 5 26 4 42 -3 42 -5 0 -710
700 -1566 1556 l-1556 1556 -3 -374 -2 -373 -3 381 c-3 500 20 463 -289 464
-117 0 -213 -2 -213 -4 0 -2 43 -82 96 -177 54 -96 107 -192 119 -214 31 -57
128 -232 157 -285 96 -171 118 -215 109 -218 -6 -2 -11 -7 -11 -12 0 -4 -63
-122 -141 -262 -78 -139 -156 -281 -175 -316 -37 -67 -40 -109 -8 -103 60 11
122 12 156 1 82 -24 145 -110 151 -205 l3 -40 49 -5 c55 -6 94 -28 128 -72 15
-18 34 -29 53 -31 31 -2 39 -7 89 -52 26 -24 35 -42 40 -80 6 -43 13 -54 48
-80 59 -44 57 -43 120 -60 68 -19 144 -85 153 -135 4 -16 10 -30 15 -30 4 0 7
-20 6 -44 l-2 -44 43 -6 c60 -8 126 -59 158 -123 21 -43 25 -62 22 -110 -2
-32 -8 -66 -12 -75 -8 -17 2 -18 129 -18 110 0 142 -3 165 -17 34 -20 50 -52
50 -99 0 -56 -83 -130 -105 -94 -9 14 -92 12 -101 -2 -4 -7 -13 -51 -20 -98
-7 -47 -20 -125 -28 -175 -8 -49 -20 -119 -25 -155 -6 -36 -18 -103 -26 -150
-8 -47 -21 -128 -30 -180 -9 -52 -22 -131 -30 -175 -8 -44 -19 -111 -25 -150
-6 -38 -17 -109 -25 -157 -8 -49 -22 -127 -29 -175 -8 -49 -20 -117 -26 -153
-6 -36 -17 -104 -25 -152 -8 -49 -22 -127 -30 -175 -8 -49 -20 -119 -26 -158
-7 -38 -15 -89 -19 -112 -4 -24 -5 -44 -4 -46 9 -9 108 4 115 15 6 9 9 9 9 1
0 -6 -4 -14 -9 -17 -5 -3 -12 -32 -15 -63 -4 -32 -12 -84 -18 -115 l-11 -58
-331 -1 c-182 -1 -335 0 -341 2 -5 2 -599 6 -1319 9 l-1309 5 -12 60 c-7 33
-15 81 -19 107 -8 54 -11 53 104 50 73 -3 82 2 71 30 -5 13 -19 77 -31 143
-12 66 -28 152 -35 190 -18 91 -101 520 -126 655 -11 58 -26 137 -34 175 -8
39 -28 144 -45 235 -60 317 -71 375 -80 415 -5 22 -19 94 -31 160 -12 66 -27
143 -33 170 l-12 50 -60 -2 c-32 -1 -78 -5 -102 -9 -90 -13 -170 45 -160 117
l5 29 -991 2 -991 3 -3 24 c-2 13 2 28 10 32 7 5 205 9 440 9 l428 0 2 346 c3
322 4 348 21 358 15 9 21 7 33 -8 11 -16 14 -79 14 -358 l0 -338 686 0 686 0
-41 46 c-98 111 -71 289 57 374 25 16 60 32 78 36 32 6 125 2 153 -7 12 -3 14
5 12 39 -2 36 -9 49 -46 83 -62 57 -89 125 -82 212 3 55 10 76 37 115 36 54
90 96 140 110 25 7 -57 10 -287 11 -196 1 -323 5 -323 10 0 13 -12 -9 349 641
47 85 97 176 110 201 l25 47 -37 62 c-20 34 -37 64 -37 67 0 3 -15 31 -34 62
-18 31 -48 82 -65 114 -57 105 -88 161 -191 347 -57 102 -109 195 -115 207
l-12 23 -437 2 c-347 2 -436 0 -436 -10z m4047 -914 c-3 -7 -5 -2 -5 12 0 14
2 19 5 13 2 -7 2 -19 0 -25z m0 -620 c-1 -112 -2 -23 -2 197 0 220 1 311 2
203 2 -108 2 -288 0 -400z m38 572 c3 -5 1 -10 -4 -10 -6 0 -11 5 -11 10 0 6
2 10 4 10 3 0 8 -4 11 -10z m-30 -850 c3 -5 1 -10 -4 -10 -6 0 -11 5 -11 10 0
6 2 10 4 10 3 0 8 -4 11 -10z m130 -60 c-3 -5 -11 -10 -16 -10 -6 0 -7 5 -4
10 3 6 11 10 16 10 6 0 7 -4 4 -10z m45 -46 c0 -2 -7 -4 -15 -4 -8 0 -15 4
-15 10 0 5 7 7 15 4 8 -4 15 -8 15 -10z m220 -184 c0 -5 -4 -10 -10 -10 -5 0
-10 5 -10 10 0 6 5 10 10 10 6 0 10 -4 10 -10z m40 -70 c0 -5 -7 -7 -15 -4 -8
4 -15 8 -15 10 0 2 7 4 15 4 8 0 15 -4 15 -10z m270 -230 c0 -5 -2 -10 -4 -10
-3 0 -8 5 -11 10 -3 6 -1 10 4 10 6 0 11 -4 11 -10z m-3 -36 c-3 -3 -12 -4
-19 -1 -8 3 -5 6 6 6 11 1 17 -2 13 -5z m193 -186 c0 -16 -3 -19 -11 -11 -6 6
-8 16 -5 22 11 17 16 13 16 -11z m320 -338 c0 -5 -2 -10 -4 -10 -3 0 -8 5 -11
10 -3 6 -1 10 4 10 6 0 11 -4 11 -10z m-35 -50 c3 -5 1 -10 -4 -10 -6 0 -11 5
-11 10 0 6 2 10 4 10 3 0 8 -4 11 -10z m-61 -35 c-4 -8 -8 -15 -10 -15 -2 0
-4 7 -4 15 0 8 4 15 10 15 5 0 7 -7 4 -15z m1923 -667 c-3 -8 -6 -5 -6 6 -1
11 2 17 5 13 3 -3 4 -12 1 -19z m-5897 -178 l0 -30 -1165 0 c-1027 0 -1166 2
-1171 15 -4 8 -4 22 0 30 5 13 144 15 1171 15 l1165 0 0 -30z m3827 -22 c-3
-8 -6 -5 -6 6 -1 11 2 17 5 13 3 -3 4 -12 1 -19z m2051 -3 c-3 -3 -9 2 -12 12
-6 14 -5 15 5 6 7 -7 10 -15 7 -18z m-143 -494 c3 -5 1 -12 -5 -16 -5 -3 -10
1 -10 9 0 18 6 21 15 7z m-15 -125 c0 -3 -4 -8 -10 -11 -5 -3 -10 -1 -10 4 0
6 5 11 10 11 6 0 10 -2 10 -4z m-2013 -28 c-3 -8 -6 -5 -6 6 -1 11 2 17 5 13
3 -3 4 -12 1 -19z m1933 -68 c0 -5 -2 -10 -4 -10 -3 0 -8 5 -11 10 -3 6 -1 10
4 10 6 0 11 -4 11 -10z m10 -90 c0 -5 -2 -10 -4 -10 -3 0 -8 5 -11 10 -3 6 -1
10 4 10 6 0 11 -4 11 -10z m-10 -51 c0 -11 -4 -17 -10 -14 -5 3 -10 13 -10 21
0 8 5 14 10 14 6 0 10 -9 10 -21z m-5468 -173 c3 -14 2 -30 -2 -35 -4 -8 -376
-10 -1250 -9 -1131 3 -1244 4 -1253 19 -6 9 -7 24 -4 33 6 15 108 16 1256 16
l1249 0 4 -24z m5335 -168 c-3 -8 -6 -5 -6 6 -1 11 2 17 5 13 3 -3 4 -12 1
-19z m-93 -203 c-4 -8 -8 -15 -10 -15 -2 0 -4 7 -4 15 0 8 4 15 10 15 5 0 7
-7 4 -15z m-14 -45 c0 -5 -4 -10 -10 -10 -5 0 -10 5 -10 10 0 6 5 10 10 10 6
0 10 -4 10 -10z m-53 -92 c-3 -8 -6 -5 -6 6 -1 11 2 17 5 13 3 -3 4 -12 1 -19z
m-2490 -120 c-3 -8 -6 -5 -6 6 -1 11 2 17 5 13 3 -3 4 -12 1 -19z m30 -10 c-3
-8 -6 -5 -6 6 -1 11 2 17 5 13 3 -3 4 -12 1 -19z m2313 -82 c0 -3 -4 -8 -10
-11 -5 -3 -10 -1 -10 4 0 6 5 11 10 11 6 0 10 -2 10 -4z m13 -41 c-3 -9 -8
-14 -10 -11 -3 3 -2 9 2 15 9 16 15 13 8 -4z m-41 -77 c-7 -7 -12 -8 -12 -2 0
14 12 26 19 19 2 -3 -1 -11 -7 -17z m-87 -147 c-3 -6 -11 -11 -16 -11 -5 0 -4
6 3 14 14 16 24 13 13 -3z m-27 -36 c-3 -3 -9 2 -12 12 -6 14 -5 15 5 6 7 -7
10 -15 7 -18z m-67 -88 c-10 -9 -11 -8 -5 6 3 10 9 15 12 12 3 -3 0 -11 -7
-18z m-123 -192 c-6 -13 -15 -22 -19 -19 -5 2 -1 14 9 24 22 26 24 25 10 -5z
m-144 -151 c3 -8 2 -12 -4 -9 -6 3 -10 10 -10 16 0 14 7 11 14 -7z m-54 -89
c7 -9 8 -15 2 -15 -5 0 -12 7 -16 15 -3 8 -4 15 -2 15 2 0 9 -7 16 -15z m-107
-139 c-10 -13 -20 -22 -22 -20 -4 4 29 44 36 44 2 0 -4 -11 -14 -24z m-193
-221 c-7 -9 -15 -13 -18 -10 -3 2 1 11 8 20 7 9 15 13 18 10 3 -2 -1 -11 -8
-20z m-157 -89 c4 -10 1 -13 -9 -9 -7 3 -14 9 -14 14 0 14 17 10 23 -5z m-32
-69 c-10 -9 -11 -8 -5 6 3 10 9 15 12 12 3 -3 0 -11 -7 -18z m-61 -32 c-7 -9
-15 -13 -19 -10 -3 3 1 10 9 15 21 14 24 12 10 -5z m-87 -80 c-3 -9 -8 -14
-10 -11 -3 3 -2 9 2 15 9 16 15 13 8 -4z m52 -3 c-3 -3 -11 0 -18 7 -9 10 -8
11 6 5 10 -3 15 -9 12 -12z m-105 -96 c0 -3 -4 -8 -10 -11 -5 -3 -10 -1 -10 4
0 6 5 11 10 11 6 0 10 -2 10 -4z m-150 -120 c0 -2 -7 -7 -16 -10 -8 -3 -12 -2
-9 4 6 10 25 14 25 6z m-86 -21 c-4 -8 -8 -15 -10 -15 -2 0 -4 7 -4 15 0 8 4
15 10 15 5 0 7 -7 4 -15z m37 -18 c-10 -9 -11 -8 -5 6 3 10 9 15 12 12 3 -3 0
-11 -7 -18z m-41 -42 c0 -2 -10 -9 -22 -15 -22 -11 -22 -10 -4 4 21 17 26 19
26 11z m-182 -139 c-2 -1 -14 -10 -28 -21 l-25 -20 18 21 c9 11 14 24 10 28
-4 4 1 4 10 0 10 -3 17 -7 15 -8z m-68 -46 c-8 -5 -19 -10 -25 -10 -5 0 -3 5
5 10 8 5 20 10 25 10 6 0 3 -5 -5 -10z m-60 -40 c0 -5 -5 -10 -11 -10 -5 0 -7
5 -4 10 3 6 8 10 11 10 2 0 4 -4 4 -10z m-90 -20 c0 -5 -2 -10 -4 -10 -3 0 -8
5 -11 10 -3 6 -1 10 4 10 6 0 11 -4 11 -10z m20 -24 c0 -2 -11 -6 -25 -8 -13
-3 -22 -1 -19 3 5 9 44 13 44 5z m-50 -36 c0 -5 -2 -10 -4 -10 -3 0 -8 5 -11
10 -3 6 -1 10 4 10 6 0 11 -4 11 -10z m-125 -80 c-3 -5 -14 -10 -23 -9 -14 0
-13 2 3 9 27 11 27 11 20 0z m-315 -168 c0 -4 -15 -16 -32 -26 l-33 -18 30 26
c34 28 35 29 35 18z m-110 -65 c11 -5 9 -6 -4 -4 -11 1 -21 9 -23 17 -3 10 -2
11 4 4 4 -6 15 -14 23 -17z m-60 -31 c0 -2 -7 -7 -16 -10 -8 -3 -12 -2 -9 4 6
10 25 14 25 6z m-414 -166 c15 -6 25 -13 22 -15 -3 -3 -20 1 -39 9 -38 17 -25
21 17 6z m-103 -17 c-7 -2 -19 -2 -25 0 -7 3 -2 5 12 5 14 0 19 -2 13 -5z m92
-11 c-3 -3 -11 0 -18 7 -9 10 -8 11 6 5 10 -3 15 -9 12 -12z m-298 -98 c-3 -3
-12 -4 -19 -1 -8 3 -5 6 6 6 11 1 17 -2 13 -5z m-177 -54 c0 -5 -4 -10 -10
-10 -5 0 -10 5 -10 10 0 6 5 10 10 10 6 0 10 -4 10 -10z m-403 -106 c-3 -3
-12 -4 -19 -1 -8 3 -5 6 6 6 11 1 17 -2 13 -5z m-140 -30 c-3 -3 -12 -4 -19
-1 -8 3 -5 6 6 6 11 1 17 -2 13 -5z m-694 -91 c-7 -2 -19 -2 -25 0 -7 3 -2 5
12 5 14 0 19 -2 13 -5z"/>
<path d="M7040 9465 c0 -6 6 -19 13 -30 8 -11 31 -51 52 -90 21 -38 83 -151
138 -250 139 -251 136 -246 212 -384 l68 -124 -36 -71 c-20 -39 -75 -141 -123
-226 -47 -85 -123 -222 -169 -305 -45 -82 -92 -166 -103 -185 -28 -45 -29 -64
-3 -50 11 5 33 10 48 10 24 0 31 6 43 38 20 55 49 89 105 125 45 28 58 31 126
32 47 0 86 -5 103 -14 22 -12 36 -13 74 -4 131 32 141 35 153 64 16 40 78 93
132 114 59 22 147 17 207 -13 25 -12 47 -18 51 -14 4 4 26 43 49 87 73 136 96
178 129 233 17 29 31 55 31 57 0 2 14 27 30 55 36 61 37 70 7 118 -13 20 -41
69 -62 107 -21 39 -60 111 -88 160 -27 50 -62 113 -77 140 -15 28 -50 91 -77
140 -28 50 -67 122 -88 160 -21 39 -46 83 -56 98 l-17 28 -436 2 c-293 1 -436
-1 -436 -8z"/>
<path d="M6918 7677 c31 -7 46 -7 54 1 9 9 -1 12 -42 11 l-55 -1 43 -11z"/>
<path d="M6887 6463 c-2 -5 -1 -35 3 -68 16 -116 69 -491 80 -555 5 -36 15
-99 21 -140 5 -41 16 -121 24 -177 8 -57 21 -149 29 -205 29 -210 66 -466 80
-563 32 -209 45 -302 51 -355 3 -30 11 -78 17 -106 l11 -51 203 -2 c112 -1
208 0 212 3 5 3 5 40 1 83 -4 43 -15 175 -24 293 -9 118 -20 267 -26 330 -5
63 -16 201 -25 305 -8 105 -21 269 -29 365 -7 96 -21 267 -30 380 -8 113 -21
264 -28 335 l-12 130 -277 3 c-152 1 -279 -1 -281 -5z"/>
<path d="M7965 6460 c-4 -7 11 -437 25 -705 11 -223 21 -481 41 -995 5 -157
13 -337 17 -400 l7 -115 256 -3 256 -2 7 77 c3 43 10 204 16 358 6 154 15 379
20 500 6 121 15 360 20 530 6 171 15 385 20 477 6 92 10 194 10 227 l0 60
-346 -2 c-190 -1 -347 -4 -349 -7z"/>
<path d="M9294 6462 c-11 -7 -20 -173 -44 -887 -5 -154 -14 -392 -20 -530 -15
-343 -28 -788 -23 -797 2 -4 95 -6 206 -5 l202 2 2 35 c2 19 10 100 18 180 14
131 22 207 55 510 6 52 17 156 25 230 8 74 21 198 29 275 8 77 22 205 30 285
26 246 46 432 56 510 5 41 10 102 12 135 l3 60 -270 2 c-148 1 -275 -1 -281
-5z"/>
</g>
</svg>
